<svg xmlns="http://www.w3.org/2000/svg" width="1530" height="423" viewBox="0 0 1530 423" version="1.1">
	<path d="M 909.500 75.648 C 883.352 78.526, 858.603 87.127, 848.269 96.926 C 847.043 98.090, 845.723 98.920, 845.338 98.771 C 844.952 98.622, 843.031 100.735, 841.068 103.466 C 837.622 108.263, 837.495 108.754, 837.349 117.841 L 837.198 127.249 831.849 130.169 C 824.213 134.337, 818.116 140.616, 816.737 145.731 C 816.009 148.428, 815.311 149.516, 814.813 148.731 C 813.342 146.415, 813.903 171.833, 815.403 175.422 C 817.410 180.226, 823.592 186.750, 830.196 191.034 L 835.892 194.730 832.854 197.615 C 827.136 203.046, 825.686 207.312, 825.202 220.125 C 824.674 234.081, 825.501 237.116, 831.707 244.019 L 836.281 249.107 835.698 256.065 C 834.043 275.801, 849.245 289.712, 880.406 296.978 C 892.611 299.824, 930.491 301.671, 944.414 300.098 C 968.449 297.384, 990.369 288.847, 999.802 278.526 C 1007.676 269.911, 1008.404 267.631, 1008.107 252.500 C 1007.818 237.726, 1006.601 233.732, 1000.671 228.097 L 997.090 224.695 1001.295 222.026 C 1010.698 216.057, 1019.156 204.029, 1016.906 199.824 C 1016.192 198.489, 1015.934 194.480, 1016.216 189.098 C 1016.863 176.777, 1012.882 168.422, 1003.357 162.113 L 998.903 159.163 1003.201 156.174 C 1008.013 152.828, 1013.493 147.239, 1017.064 142.035 C 1021.680 135.310, 1019.390 107.105, 1013.551 98.770 C 1012.586 97.391, 1012 97.091, 1012 97.974 C 1012 98.866, 1010.795 98.266, 1008.750 96.355 C 1002.072 90.114, 989.661 83.873, 973.299 78.529 C 964.029 75.501, 959.525 75.228, 965.500 78.055 C 970.553 80.446, 970.286 80.440, 958.360 77.900 C 948.659 75.833, 919.872 74.507, 909.500 75.648 M 1115.500 75.628 C 1091.555 78.154, 1066.842 86.085, 1056.332 94.616 C 1054.039 96.477, 1051.753 98, 1051.251 98 C 1049.803 98, 1044.408 106.120, 1043.018 110.390 C 1042.199 112.909, 1041.981 116.511, 1042.401 120.611 L 1043.050 126.941 1038.275 129.366 C 1031.741 132.685, 1024.523 139.252, 1023.052 143.216 C 1022.382 145.022, 1021.421 147.281, 1020.917 148.236 C 1020.412 149.191, 1020 155.676, 1020 162.646 L 1020 175.318 1023.972 180.579 C 1026.196 183.525, 1030.813 187.727, 1034.462 190.126 L 1040.980 194.411 1038.651 196.956 C 1031.790 204.450, 1029.323 213.291, 1030.263 227.012 C 1030.836 235.374, 1032.352 239.148, 1037.410 244.810 C 1040.866 248.679, 1042.918 256.189, 1041.113 258.364 C 1039.848 259.888, 1041.389 267.894, 1043.876 272.719 C 1049.060 282.778, 1067.364 293.160, 1087.500 297.463 C 1100.433 300.226, 1140.177 301.522, 1153.450 299.613 C 1177.758 296.117, 1199.520 286.886, 1207.183 276.821 C 1212.646 269.645, 1213.685 266.196, 1213.875 254.598 C 1214.109 240.330, 1212.443 234.390, 1206.554 228.502 L 1202.209 224.156 1205.068 222.972 C 1208.480 221.559, 1217.374 212.908, 1220.460 208 C 1222.499 204.759, 1222.629 203.577, 1222.217 192 C 1221.615 175.089, 1218.299 168.307, 1206.991 160.859 C 1205.621 159.957, 1204.725 159.039, 1205 158.819 C 1205.275 158.599, 1208.032 156.552, 1211.127 154.270 C 1214.322 151.914, 1218.504 147.500, 1220.804 144.056 L 1224.854 137.991 1224.351 124.745 C 1223.979 114.920, 1223.300 109.875, 1221.724 105.206 C 1219.730 99.301, 1217 95.102, 1217 97.941 C 1217 98.593, 1215.313 97.476, 1213.250 95.459 C 1206.799 89.151, 1174.577 75.260, 1168.674 76.243 C 1167.002 76.521, 1167.482 76.918, 1170.756 77.963 C 1177.730 80.187, 1174.966 80.179, 1163.895 77.942 C 1153.739 75.889, 1125.722 74.550, 1115.500 75.628 M 918.638 81.500 C 919.096 82.693, 921.236 83, 929.107 83 C 937.234 83, 939 82.732, 939 81.500 C 939 80.262, 937.170 80, 928.531 80 C 919.637 80, 918.149 80.226, 918.638 81.500 M 1124 81.500 C 1124 82.732, 1125.766 83, 1133.893 83 C 1141.764 83, 1143.904 82.693, 1144.362 81.500 C 1144.851 80.226, 1143.363 80, 1134.469 80 C 1125.830 80, 1124 80.262, 1124 81.500 M 898.167 82.531 C 888.494 84.041, 888.163 84.214, 891.524 86.013 C 895.266 88.015, 894.245 89.068, 884.471 93.288 L 875.595 97.120 869.680 94.964 L 863.766 92.807 856.871 97.518 C 847.619 103.840, 847.629 104, 857.274 104 C 866.801 104, 867.634 104.384, 865.426 107.754 C 864.448 109.247, 863.969 111.713, 864.172 114.221 L 864.500 118.274 855.525 118.695 C 850.589 118.927, 846.355 119.312, 846.116 119.551 C 845.877 119.790, 848.126 122.431, 851.115 125.420 L 856.549 130.854 863.719 128.742 C 867.663 127.581, 870.663 126.264, 870.386 125.815 C 869.548 124.459, 870.588 124.820, 881 129.500 C 886.507 131.975, 891.460 134, 892.006 134 C 894.461 134, 892.606 136.175, 888.507 138.102 C 886.036 139.263, 884.234 140.570, 884.504 141.006 C 885.111 141.989, 898.491 145.023, 906.347 145.959 L 912.193 146.656 914.296 142.328 L 916.399 138 929.627 138 L 942.855 138 944.620 142 C 946.720 146.759, 946.872 146.777, 961.471 143.960 C 976.657 141.029, 977.170 140.775, 972.385 138.546 C 965.075 135.141, 965.114 135.038, 975.692 129.818 L 985.500 124.977 993.448 127.498 L 1001.396 130.019 1004.972 126.528 C 1006.938 124.607, 1009.350 121.678, 1010.330 120.018 L 1012.113 117 1002.655 117 L 993.196 117 992.493 110.939 C 992.106 107.605, 992.078 104.589, 992.431 104.236 C 992.783 103.883, 996.521 103.349, 1000.736 103.047 L 1008.400 102.500 1005.112 99.741 C 997.155 93.063, 993.676 91.752, 988.855 93.617 C 986.460 94.543, 984.097 95.659, 983.604 96.096 C 983.111 96.534, 980.995 96.018, 978.900 94.949 C 976.806 93.881, 972.513 92.041, 969.360 90.862 L 963.628 88.717 966.340 86.384 L 969.052 84.051 966.776 83.548 C 962.677 82.642, 948.931 81, 945.447 81 C 942.645 81, 941.926 81.445, 941.411 83.500 C 940.784 85.998, 940.775 86, 928.392 86 L 916 86 916 83.500 C 916 80.521, 912.316 80.321, 898.167 82.531 M 1110 81.540 C 1109.175 81.734, 1105.197 82.414, 1101.159 83.052 L 1093.818 84.211 1097.159 86.267 L 1100.500 88.322 1091 92.749 L 1081.500 97.176 1075.320 95.003 L 1069.140 92.830 1063.280 96.810 C 1053.343 103.558, 1053.349 104, 1063.378 104 C 1072.546 104, 1072.828 104.183, 1070.506 108.636 C 1068.698 112.102, 1068.583 115.183, 1070.200 116.800 C 1071.733 118.333, 1072.210 118.262, 1056.699 118.799 L 1050.898 119 1053.516 122.433 C 1054.956 124.321, 1057.632 127.007, 1059.461 128.403 L 1062.788 130.940 1069.144 128.813 C 1072.640 127.643, 1075.736 126.331, 1076.024 125.899 C 1076.313 125.466, 1080.813 127.033, 1086.024 129.381 C 1091.236 131.728, 1096.400 133.991, 1097.500 134.409 C 1099.208 135.058, 1098.710 135.573, 1094.095 137.930 C 1087.680 141.207, 1087.714 141.238, 1100.500 143.836 C 1118.399 147.473, 1117.583 147.533, 1119.682 142.430 L 1121.500 138.007 1134.730 138.004 L 1147.959 138 1150 142 C 1152.378 146.660, 1152.178 146.635, 1166.057 144.071 C 1182.227 141.085, 1182.600 140.844, 1176.138 137.570 L 1170.795 134.862 1180.918 129.896 L 1191.042 124.929 1198.727 127.352 C 1205.705 129.553, 1206.624 129.637, 1208.703 128.275 C 1211.027 126.752, 1217 119.241, 1217 117.841 C 1217 117.420, 1212.838 116.946, 1207.752 116.788 L 1198.504 116.500 1197.765 110.570 C 1197.359 107.308, 1197.276 104.391, 1197.581 104.086 C 1197.885 103.781, 1201.479 103.363, 1205.567 103.157 C 1209.655 102.950, 1213 102.543, 1213 102.251 C 1213 101.524, 1210.440 99.521, 1204.343 95.478 L 1199.187 92.058 1194.343 93.688 C 1191.679 94.585, 1189.248 95.698, 1188.940 96.161 C 1188.632 96.624, 1186.157 95.944, 1183.440 94.651 C 1180.723 93.357, 1176.302 91.472, 1173.616 90.462 L 1168.732 88.626 1171.550 86.378 L 1174.369 84.131 1171.934 83.588 C 1167.745 82.654, 1154.013 81, 1150.447 81 C 1147.645 81, 1146.926 81.445, 1146.411 83.500 C 1145.784 85.998, 1145.775 86, 1133.403 86 C 1121.161 86, 1121.026 85.975, 1121.262 83.750 C 1121.479 81.703, 1121.050 81.486, 1116.500 81.344 C 1113.750 81.258, 1110.825 81.346, 1110 81.540 M 970.441 86.468 C 968.788 87.719, 968.744 87.941, 970.148 87.968 C 971.055 87.986, 974.244 89.287, 977.235 90.860 C 982.608 93.687, 982.713 93.700, 986.053 91.972 L 989.434 90.224 981.165 87.612 C 971.400 84.527, 972.809 84.678, 970.441 86.468 M 1082.717 87.975 C 1073.218 91.340, 1073.018 91.521, 1077.254 92.919 C 1080.245 93.906, 1081.424 93.682, 1087.321 91.009 C 1094.619 87.700, 1094.818 87.503, 1092.250 86.145 C 1091.019 85.493, 1088.193 86.036, 1082.717 87.975 M 1176.238 86.227 C 1175.440 87.199, 1176.684 88.209, 1181.505 90.502 C 1187.609 93.406, 1187.934 93.453, 1191.371 91.937 L 1194.924 90.369 1188.212 88.269 C 1177.464 84.907, 1177.339 84.886, 1176.238 86.227 M 875.101 88.738 L 868.703 91.288 871.447 92.726 C 873.918 94.021, 874.673 93.957, 879.035 92.080 C 881.699 90.934, 885.128 89.522, 886.655 88.941 C 888.879 88.096, 889.140 87.700, 887.966 86.958 C 885.642 85.488, 881.986 85.994, 875.101 88.738 M 919 88.148 C 896.417 89.627, 877.093 97.118, 872.388 106.217 C 864.259 121.937, 889.029 135.178, 926.500 135.144 C 967.663 135.107, 995.047 119.896, 983.356 103.564 C 978.399 96.640, 959.713 89.355, 944.500 88.415 C 940.100 88.143, 935.150 87.802, 933.500 87.658 C 931.850 87.514, 925.325 87.734, 919 88.148 M 1125.500 88.147 C 1100.529 89.617, 1081.366 97.459, 1077.002 107.994 C 1067.556 130.800, 1132.392 144.399, 1174.271 128.396 C 1182.445 125.273, 1190.307 118.360, 1191.266 113.453 C 1194.411 97.361, 1164.501 85.852, 1125.500 88.147 M 910.750 92.706 C 911.987 92.944, 914.013 92.944, 915.250 92.706 C 916.487 92.467, 915.475 92.272, 913 92.272 C 910.525 92.272, 909.513 92.467, 910.750 92.706 M 1116.264 92.718 C 1117.784 92.947, 1120.034 92.941, 1121.264 92.704 C 1122.494 92.467, 1121.250 92.279, 1118.500 92.286 C 1115.750 92.294, 1114.744 92.488, 1116.264 92.718 M 913.949 95.042 C 897.103 96.544, 882.707 103.047, 880.445 110.175 C 873.861 130.917, 959.517 136, 976.454 115.872 C 977.854 114.208, 979 113.347, 979 113.958 C 979 116.246, 975.412 120.417, 971.083 123.162 C 965.193 126.898, 967.072 126.800, 973.647 123.029 C 986.370 115.732, 986.038 106.652, 972.802 99.899 L 968.834 97.875 973.417 102.266 C 975.938 104.681, 977.984 107.297, 977.964 108.079 C 977.942 108.961, 977.088 108.499, 975.714 106.862 C 972.541 103.081, 964.130 99.171, 953.211 96.402 C 943.121 93.842, 931.795 93.450, 913.949 95.042 M 1119.500 94.995 C 1094.600 97.196, 1079.044 108.965, 1088.750 118.259 C 1095.918 125.123, 1110.033 128.272, 1134 128.352 C 1158.564 128.435, 1173.096 124.708, 1181.592 116.146 C 1185.174 112.536, 1185.195 112.530, 1183.700 115.500 C 1181.564 119.744, 1178.309 122.514, 1171.986 125.468 C 1168.969 126.878, 1167.625 127.746, 1169 127.396 C 1174.228 126.068, 1181.666 121.940, 1184.968 118.533 C 1190.786 112.530, 1189.459 106.848, 1181 101.547 C 1174.631 97.556, 1174.054 98.046, 1179.238 103.042 C 1182.053 105.756, 1184.121 108.213, 1183.832 108.501 C 1183.543 108.790, 1181.684 107.495, 1179.701 105.625 C 1169.944 96.423, 1147.724 92.499, 1119.500 94.995 M 1280.585 95.096 C 1275.131 95.546, 1270.069 96.143, 1269.335 96.425 C 1268.235 96.847, 1268 113.323, 1268 189.978 L 1268 283.019 1315.720 282.760 L 1363.439 282.500 1364.595 275.500 C 1365.230 271.650, 1366.070 265.012, 1366.460 260.750 L 1367.171 253 1336.085 253 L 1305 253 1305 173.500 L 1305 94 1297.750 94.140 C 1293.763 94.217, 1286.038 94.647, 1280.585 95.096 M 888.500 97.691 C 883.121 98.819, 874 107.799, 874 111.968 C 874 115.130, 880.962 121.881, 887.308 124.871 C 897.220 129.542, 906.550 131.215, 924.500 131.536 L 940.500 131.823 927 131.046 C 897.925 129.372, 883.722 125.165, 879.485 116.971 C 876.319 110.848, 878.493 106.050, 886.892 100.630 C 889.976 98.639, 892.050 97.069, 891.500 97.141 C 890.950 97.213, 889.600 97.461, 888.500 97.691 M 1091.500 98.890 C 1085.501 101.659, 1080 107.662, 1080 111.439 C 1080 122.766, 1100.363 131.037, 1129.500 131.545 L 1145.500 131.823 1132 131.009 C 1102.723 129.244, 1091.146 125.792, 1085.274 117.078 C 1084.023 115.223, 1083 112.937, 1083 112 C 1083 108.848, 1087.526 103.525, 1092.989 100.250 C 1098.863 96.729, 1097.962 95.907, 1091.500 98.890 M 53 194.647 L 53 289.295 63.750 288.625 C 69.662 288.256, 77.987 287.675, 82.250 287.334 L 90 286.712 90 245.812 L 90 204.912 97.244 205.206 L 104.487 205.500 112.115 225 C 116.311 235.725, 123.687 254.625, 128.507 267 C 133.327 279.375, 137.632 289.900, 138.074 290.388 C 138.848 291.245, 172.824 282.552, 174.123 281.165 C 174.466 280.799, 172.058 274.200, 168.772 266.500 C 158.788 243.103, 140.942 199.718, 141.230 199.542 C 158.682 188.854, 166.470 176.019, 167.652 156 C 169.149 130.640, 157.710 113.455, 133.991 105.430 C 120.718 100.939, 111.653 100.007, 81.250 100.003 L 53 100 53 194.647 M 313 102.630 C 286.472 107.713, 268 129.600, 268 155.949 C 268 179.370, 277.222 190.880, 312.267 211.197 C 336.332 225.148, 339.388 227.491, 342.649 234.493 C 346.713 243.221, 345.495 251.489, 339.136 258.339 C 328.182 270.139, 314.314 264.149, 299.571 241.250 C 297.004 237.262, 294.332 234, 293.635 234 C 292.500 234, 264.065 246.638, 263.112 247.565 C 262.241 248.412, 271.031 264.891, 275.179 270.188 C 287.388 285.780, 304.710 294.022, 325.197 293.985 C 369.640 293.906, 398.631 251.463, 379.859 213.958 C 373.549 201.352, 364.056 193.270, 338.825 179.025 C 315.237 165.708, 309.566 160.957, 308.461 153.586 C 306.486 140.420, 312.971 132, 325.085 132 C 334.931 132, 341.015 136.748, 345.908 148.250 C 347.020 150.863, 348.557 153, 349.325 153 C 350.877 153, 377.968 141.200, 379.418 139.892 C 380.856 138.595, 373.555 124.833, 368.368 119.064 C 357.511 106.988, 347.811 102.898, 329 102.463 C 321.575 102.292, 314.375 102.367, 313 102.630 M 398.622 103.802 C 398.350 104.243, 397.605 110.430, 396.968 117.552 C 396.330 124.673, 395.739 130.950, 395.654 131.500 C 395.557 132.130, 402.632 132.601, 414.750 132.772 L 434 133.043 434 213.522 L 434 294 437.250 293.950 C 443.986 293.847, 469.752 291.272, 470.852 290.591 C 471.700 290.067, 472 269.390, 472 211.441 L 472 133 489.500 133 C 499.125 133, 507.028 132.887, 507.062 132.750 C 507.584 130.628, 509.634 104.291, 509.319 103.750 C 508.728 102.736, 399.250 102.787, 398.622 103.802 M 530.667 103.667 C 530.300 104.033, 530 146.616, 530 198.295 L 530 292.257 542.750 291.537 C 549.763 291.141, 558.200 290.521, 561.500 290.159 L 567.500 289.500 567.761 248.750 L 568.022 208 574.827 208 L 581.632 208 583.774 213.250 C 584.951 216.137, 590.246 229.525, 595.538 243 C 600.831 256.475, 607.150 272.547, 609.580 278.716 C 612.011 284.884, 614 290.342, 614 290.843 C 614 293.607, 617.118 294.328, 622.303 292.765 C 625.161 291.904, 633.013 289.722, 639.750 287.916 C 646.487 286.111, 652 284.286, 652 283.862 C 652 283.437, 649.938 278.232, 647.419 272.295 C 637.419 248.734, 634.921 242.765, 627.111 223.791 C 622.650 212.951, 619 203.702, 619 203.238 C 619 202.774, 621.726 200.472, 625.057 198.122 C 640.631 187.139, 648.435 166.255, 644.592 145.843 C 640.144 122.214, 624.805 109.312, 595.439 104.500 C 586.193 102.985, 532.045 102.288, 530.667 103.667 M 698.519 104.250 C 698.289 104.938, 696.301 114.050, 694.101 124.500 C 691.901 134.950, 686.904 158.575, 682.998 177 C 679.091 195.425, 673.431 222.200, 670.419 236.500 C 667.408 250.800, 664.302 265.425, 663.517 269 C 660.203 284.108, 659 289.957, 659 290.972 C 659 291.709, 664.265 291.962, 675.682 291.774 L 692.364 291.500 693.605 285.500 C 695.939 274.221, 700 253.389, 700 252.694 C 700 252.312, 710.095 252, 722.433 252 C 742.940 252, 744.908 252.150, 745.364 253.750 C 745.639 254.713, 747.033 262.700, 748.463 271.500 C 749.892 280.300, 751.282 288.512, 751.550 289.750 C 752.037 291.995, 752.088 292, 772.586 292 C 791.665 292, 793.102 291.875, 792.674 290.250 C 791.934 287.435, 790.260 280.066, 788.529 272 C 787.644 267.875, 786.281 261.575, 785.500 258 C 784.719 254.425, 783.356 248.125, 782.471 244 C 781.586 239.875, 780.438 234.700, 779.920 232.500 C 779.402 230.300, 774.904 209.600, 769.925 186.500 C 764.945 163.400, 759.980 140.450, 758.890 135.500 C 755.900 121.922, 755.083 118.058, 753.817 111.500 C 752.063 102.416, 754.055 103, 724.846 103 C 705.009 103, 698.839 103.293, 698.519 104.250 M 995.370 108.250 C 995.701 109.487, 995.979 111.287, 995.986 112.250 C 995.998 113.770, 997.053 114, 1004 114 C 1011.795 114, 1012 113.938, 1012 111.582 C 1012 106.400, 1011.339 106, 1002.776 106 C 994.958 106, 994.781 106.054, 995.370 108.250 M 1200.829 110 L 1201.210 114 1209.684 114 L 1218.159 114 1217.462 110.750 C 1216.434 105.959, 1216.515 106, 1208.165 106 L 1200.447 106 1200.829 110 M 846.571 108.571 C 845.707 109.436, 845 111.389, 845 112.911 L 845 115.679 852.750 115.222 C 857.013 114.970, 860.549 114.705, 860.608 114.632 C 860.668 114.559, 860.977 112.813, 861.296 110.750 L 861.874 107 855.009 107 C 850.100 107, 847.695 107.448, 846.571 108.571 M 1052.128 108.345 C 1051.514 109.085, 1050.741 111.045, 1050.410 112.701 L 1049.808 115.712 1057.654 115.230 C 1061.969 114.965, 1065.553 114.692, 1065.617 114.624 C 1065.682 114.556, 1066.040 112.813, 1066.413 110.750 L 1067.091 107 1060.168 107 C 1055.588 107, 1052.867 107.455, 1052.128 108.345 M 1009.250 129.674 C 1005.583 134.315, 1004.221 145.620, 1007.480 144.369 C 1010.765 143.109, 1013.116 137.348, 1012.801 131.329 L 1012.500 125.561 1009.250 129.674 M 1214.250 130.160 C 1211.366 133.760, 1211.003 134.907, 1211.027 140.358 L 1211.054 146.500 1214.527 142.765 C 1217.753 139.295, 1218 138.567, 1218 132.515 C 1218 128.932, 1217.888 126.023, 1217.750 126.052 C 1217.612 126.080, 1216.037 127.929, 1214.250 130.160 M 90.414 128.917 C 90.186 129.146, 90 140.331, 90 153.772 L 90 178.211 101.750 177.855 C 115.895 177.428, 123.185 174.656, 127.105 168.215 C 130.597 162.476, 131.108 145.920, 127.991 139.480 C 124.060 131.361, 120.137 129.631, 104.265 129.019 C 96.874 128.733, 90.641 128.688, 90.414 128.917 M 978.618 131.675 L 971.736 135.208 975.618 137.411 L 979.500 139.613 985.500 137.200 C 988.800 135.872, 992.850 134.088, 994.500 133.234 L 997.500 131.681 992.500 129.918 C 986.040 127.640, 986.617 127.567, 978.618 131.675 M 1183.764 131.898 L 1177.028 135.643 1180.548 137.322 C 1185.153 139.518, 1185.751 139.471, 1193.184 136.337 C 1202.615 132.360, 1203.114 131.568, 1197.412 129.625 C 1191.323 127.550, 1191.697 127.488, 1183.764 131.898 M 865.763 130.908 L 861.026 132.642 864.763 134.443 C 874.675 139.221, 879.220 140.197, 882.739 138.301 C 886.153 136.463, 886.978 135, 884.602 135 C 883.832 135, 880.637 133.650, 877.500 132 C 870.974 128.567, 871.918 128.655, 865.763 130.908 M 1050 134.162 C 1050 138.135, 1050.541 140.446, 1051.848 142.061 L 1053.697 144.344 1054.405 139.002 C 1055.053 134.123, 1054.892 133.438, 1052.557 131.102 L 1050 128.545 1050 134.162 M 1071.044 130.971 L 1066.587 132.735 1069.544 134.205 C 1071.170 135.014, 1075.282 136.692, 1078.682 137.934 C 1084.721 140.141, 1084.935 140.151, 1087.932 138.381 C 1091.963 136, 1091.975 136.018, 1084.070 132.250 C 1076.328 128.560, 1076.976 128.623, 1071.044 130.971 M 183 196.500 L 183 263 216.921 263 L 250.841 263 251.377 260.250 C 251.672 258.738, 252.211 254.012, 252.574 249.750 L 253.235 242 231.617 242 L 210 242 210 223.500 L 210 205 224 205 L 238 205 238 194 L 238 183 224 183 L 210 183 210 167 L 210 151 229.871 151 L 249.742 151 250.415 143.750 C 250.785 139.762, 251.343 135.037, 251.655 133.250 L 252.223 130 217.611 130 L 183 130 183 196.500 M 845 135.190 C 845 139.420, 845.462 141.108, 847 142.500 C 848.977 144.289, 849 144.247, 849 138.810 C 849 134.580, 848.538 132.892, 847 131.500 C 845.023 129.711, 845 129.753, 845 135.190 M 567.998 156.250 L 568 181 577.250 180.976 C 598.820 180.919, 606.772 174.933, 607.776 158 C 608.911 138.833, 602.821 132.869, 581.248 132.021 L 567.996 131.500 567.998 156.250 M 830.663 137.055 C 827.548 139.285, 825 141.510, 825 141.999 C 825 142.489, 828.354 142.889, 832.454 142.889 L 839.908 142.889 838.954 140.379 C 838.429 138.999, 838 136.774, 838 135.435 C 838 132.165, 837.265 132.327, 830.663 137.055 M 1037 136.360 C 1028.769 142.415, 1028.802 142.868, 1037.470 142.834 C 1044.050 142.808, 1045.010 142.582, 1044.611 141.152 C 1044.357 140.243, 1043.855 138.037, 1043.495 136.250 C 1042.692 132.261, 1042.568 132.264, 1037 136.360 M 1381 199.500 L 1381 266 1414.889 266 L 1448.777 266 1449.345 262.750 C 1449.657 260.962, 1450.215 256.238, 1450.585 252.250 L 1451.258 245 1429.629 245 L 1408 245 1408 226.500 L 1408 208 1422 208 L 1436 208 1436 197.028 L 1436 186.056 1422.250 185.778 L 1408.500 185.500 1408.225 169.750 L 1407.949 154 1427.856 154 L 1447.763 154 1448.445 145.250 C 1448.820 140.438, 1449.354 135.713, 1449.631 134.750 C 1450.104 133.107, 1448.014 133, 1415.567 133 L 1381 133 1381 199.500 M 719.176 145.250 C 717.358 157.097, 714.158 177.502, 713.019 184.500 C 712.482 187.800, 711.127 196.575, 710.008 204 C 708.889 211.425, 707.745 218.512, 707.467 219.750 L 706.962 222 722.481 222 C 732.579 222, 738 221.636, 738 220.958 C 738 220.385, 737.346 216.672, 736.547 212.708 C 735.748 208.744, 733.031 194.700, 730.509 181.500 C 727.987 168.300, 725.041 153.050, 723.962 147.611 C 722.883 142.172, 722 137.559, 722 137.361 C 722 137.162, 721.649 137, 721.221 137 C 720.792 137, 719.872 140.713, 719.176 145.250 M 993.729 140.604 C 993.328 141.005, 993 142.023, 993 142.867 C 993 143.992, 993.296 144.104, 994.112 143.288 C 994.724 142.676, 995.053 141.657, 994.842 141.025 C 994.631 140.393, 994.130 140.203, 993.729 140.604 M 1134.337 140.782 L 1123.173 141.064 1122.139 144.032 L 1121.104 147 1135 147 L 1148.896 147 1147.850 143.998 C 1146.534 140.224, 1147.481 140.450, 1134.337 140.782 M 916.975 143.565 C 916.439 144.976, 916 146.326, 916 146.565 C 916 146.804, 922.075 147, 929.500 147 C 943.403 147, 944.031 146.795, 941.965 142.934 C 941.034 141.194, 939.776 141, 929.440 141 C 918.027 141, 917.944 141.017, 916.975 143.565 M 987.965 145.250 C 985.586 149.104, 984.607 152.422, 985.323 154.207 C 985.609 154.918, 985.878 154.262, 985.921 152.750 C 985.964 151.238, 986.398 150, 986.883 150 C 987.369 150, 988.037 149.213, 988.367 148.250 C 988.697 147.287, 989.410 145.488, 989.951 144.250 C 991.397 140.944, 990.273 141.510, 987.965 145.250 M 1193.635 144.434 C 1192.736 145.806, 1192.032 147.958, 1192.071 149.215 C 1192.124 150.941, 1192.618 150.426, 1194.092 147.104 C 1196.308 142.109, 1196.070 140.718, 1193.635 144.434 M 866.032 144.135 C 866.014 144.485, 866.657 146.285, 867.461 148.135 C 868.538 150.617, 868.932 150.960, 868.961 149.441 C 868.995 147.656, 866.117 142.442, 866.032 144.135 M 983.374 145.467 C 982.321 148.211, 983.570 149.239, 984.766 146.613 C 985.514 144.973, 985.581 144, 984.947 144 C 984.392 144, 983.684 144.660, 983.374 145.467 M 995.667 144.667 C 995.300 145.033, 995.029 146.271, 995.063 147.417 C 995.122 149.332, 995.204 149.307, 996.085 147.105 C 997.064 144.657, 996.861 143.472, 995.667 144.667 M 1070.750 144.787 C 1069.680 145.007, 1069.045 145.992, 1069.116 147.323 C 1069.206 149.015, 1069.334 149.110, 1069.689 147.750 C 1070.307 145.388, 1072.065 145.533, 1072.710 148 C 1072.998 149.100, 1073.647 150, 1074.152 150 C 1074.703 150, 1074.710 149.300, 1074.170 148.250 C 1073.675 147.287, 1073.097 146.034, 1072.885 145.464 C 1072.673 144.894, 1071.713 144.590, 1070.750 144.787 M 1189.123 144.924 C 1188.397 145.373, 1187.980 146.586, 1188.195 147.620 C 1188.551 149.325, 1188.708 149.282, 1189.875 147.164 C 1191.331 144.522, 1191.063 143.725, 1189.123 144.924 M 822.035 146.934 C 819.655 151.382, 820.491 152, 828.891 152 L 836.781 152 837.190 148.500 L 837.598 145 830.334 145 C 824.176 145, 822.913 145.294, 822.035 146.934 M 839.417 149.915 L 838.742 155 830.371 155 C 825.767 155, 822 155.363, 822 155.806 C 822 157.145, 826.515 162.831, 829.348 165.059 L 832.007 167.151 839.690 164.659 L 847.373 162.167 856.187 166.594 C 861.034 169.028, 865 171.191, 865 171.400 C 865 171.609, 862.926 172.755, 860.390 173.947 C 857.855 175.138, 856.034 176.367, 856.344 176.677 C 857.290 177.623, 868.288 179.968, 871.857 179.984 C 874.427 179.996, 875.079 180.352, 874.638 181.500 C 874.288 182.414, 874.637 183, 875.531 183 C 876.339 183, 877 182.550, 877 182 C 877 181.450, 878.554 181, 880.453 181 C 883.416 181, 884.142 180.504, 885.567 177.500 L 887.228 174 899.429 174 L 911.630 174 913.320 177.544 C 914.912 180.882, 915.228 181.054, 918.755 180.495 C 946.187 176.143, 947.961 174.473, 926 173.676 C 874.050 171.792, 854.015 166.547, 846.257 152.802 C 841.471 144.321, 840.229 143.797, 839.417 149.915 M 1027.558 146.250 C 1025.756 152.179, 1025.552 152, 1034.094 152 C 1041.221 152, 1042 151.811, 1042 150.082 C 1042 149.027, 1042.273 147.452, 1042.607 146.582 C 1043.128 145.224, 1042.130 145, 1035.576 145 C 1030.334 145, 1027.818 145.392, 1027.558 146.250 M 1045.507 146.250 C 1045.271 146.938, 1044.947 149.075, 1044.789 151 L 1044.500 154.500 1035.744 154.789 L 1026.989 155.078 1028.443 157.891 C 1030.531 161.927, 1036.829 167.187, 1038.832 166.565 C 1039.749 166.281, 1043.200 165.228, 1046.500 164.226 L 1052.500 162.403 1061.250 166.392 C 1066.063 168.586, 1070 170.751, 1070 171.203 C 1070 171.656, 1067.955 173.019, 1065.456 174.234 L 1060.912 176.441 1064.540 177.697 C 1066.535 178.388, 1070.492 179.225, 1073.334 179.557 C 1080.659 180.414, 1081.842 180.856, 1079.972 182.038 C 1078.737 182.820, 1078.781 182.972, 1080.250 182.985 C 1081.213 182.993, 1082 182.550, 1082 182 C 1082 181.450, 1083.765 181, 1085.922 181 C 1089.519 181, 1089.941 180.709, 1091 177.500 L 1092.155 174 1104.594 174 L 1117.032 174 1118.726 177.552 C 1120.643 181.571, 1119.560 181.529, 1137.275 178.267 C 1148.161 176.262, 1148.222 174.579, 1137.420 174.284 C 1133.064 174.165, 1125 173.594, 1119.500 173.015 C 1114 172.436, 1103.425 171.524, 1096 170.987 C 1069.593 169.080, 1058.782 164.199, 1050.070 150.250 C 1046.571 144.647, 1046.177 144.302, 1045.507 146.250 M 975.500 147.098 C 973.850 147.608, 967.159 149.122, 960.632 150.463 C 954.105 151.805, 948.648 153.037, 948.505 153.201 C 947.321 154.567, 947.020 167, 948.170 166.997 C 950.862 166.990, 967.674 163.855, 973.250 162.320 L 979 160.736 979 153.368 C 979 149.316, 978.888 146.039, 978.750 146.086 C 978.612 146.133, 977.150 146.589, 975.500 147.098 M 1179 147.586 C 1176.525 148.339, 1170.675 149.648, 1166 150.495 C 1151.579 153.108, 1153 152.067, 1153 160.019 C 1153 165.483, 1153.318 167, 1154.465 167 C 1156.428 167, 1174.531 163.473, 1179.671 162.089 L 1183.768 160.985 1184.243 154.243 C 1184.819 146.068, 1184.658 145.864, 1179 147.586 M 880.687 153.140 C 881.360 158.967, 881.777 159.488, 887 161.018 C 892.629 162.666, 911.948 166.386, 912.421 165.912 C 912.659 165.674, 912.608 162.767, 912.307 159.453 L 911.761 153.426 898.630 151.217 C 891.409 150.002, 884.278 148.732, 882.784 148.394 L 880.068 147.780 880.687 153.140 M 1086 153.355 L 1086 158.944 1091.750 160.541 C 1094.912 161.419, 1098.175 162.360, 1099 162.633 C 1101.066 163.317, 1115.212 166, 1116.750 166 C 1118.097 166, 1118.335 162.658, 1117.393 156.967 L 1116.809 153.434 1103.654 151.235 C 1096.419 150.026, 1089.487 148.751, 1088.250 148.401 C 1086.109 147.798, 1086 148.038, 1086 153.355 M 873.031 150.500 C 873.031 151.600, 873.467 153.175, 874 154 C 874.803 155.242, 874.969 155.156, 874.969 153.500 C 874.969 152.400, 874.533 150.825, 874 150 C 873.197 148.758, 873.031 148.844, 873.031 150.500 M 1078.031 150 C 1078.031 150.825, 1078.467 152.175, 1079 153 C 1079.862 154.333, 1079.969 154.333, 1079.969 153 C 1079.969 152.175, 1079.533 150.825, 1079 150 C 1078.138 148.667, 1078.031 148.667, 1078.031 150 M 1198.622 150.825 C 1198.179 152.104, 1198.083 153.417, 1198.409 153.742 C 1199.445 154.779, 1200.174 153.250, 1199.794 150.836 L 1199.426 148.500 1198.622 150.825 M 988.655 152.368 C 988.241 153.945, 988.139 155.472, 988.428 155.761 C 989.233 156.566, 990.217 153.346, 989.789 151.308 C 989.508 149.975, 989.210 150.254, 988.655 152.368 M 993.116 150.668 C 993.052 151.311, 992.709 152.661, 992.353 153.668 C 991.851 155.089, 991.984 155.244, 992.947 154.356 C 993.629 153.727, 993.973 152.377, 993.710 151.356 C 993.447 150.335, 993.180 150.026, 993.116 150.668 M 870.070 153.691 C 870.032 154.896, 870.450 156.160, 871 156.500 C 872.183 157.231, 872.183 156.252, 871 153.500 C 870.171 151.572, 870.138 151.579, 870.070 153.691 M 1075 153.309 C 1075 154.029, 1075.669 155.491, 1076.486 156.559 C 1077.846 158.335, 1077.880 158.223, 1076.888 155.250 C 1075.756 151.857, 1075 151.079, 1075 153.309 M 1193.720 153.332 C 1192.606 156.165, 1192.788 157.612, 1194.094 156.306 C 1194.695 155.705, 1195.020 154.377, 1194.814 153.356 C 1194.454 151.566, 1194.415 151.565, 1193.720 153.332 M 915.001 155.610 C 915.001 156.771, 915.286 159.809, 915.636 162.360 L 916.272 167 930.136 167 L 944 167 944 160.125 L 944 153.249 929.501 153.375 C 915.457 153.496, 915.003 153.566, 915.001 155.610 M 1120.546 154 C 1120.397 154.275, 1120.492 157.313, 1120.758 160.750 L 1121.240 167 1135.620 167 L 1150 167 1150 160.111 L 1150 153.221 1135.408 153.361 C 1127.383 153.437, 1120.694 153.725, 1120.546 154 M 854.503 158.451 C 857.169 160.604, 867.946 165.467, 868.511 164.771 C 868.633 164.622, 864.856 162.594, 860.118 160.265 C 853.866 157.191, 852.327 156.694, 854.503 158.451 M 1058.937 157.328 C 1060.508 159.327, 1069.161 164.013, 1071.217 163.979 C 1071.923 163.967, 1069.800 162.570, 1066.500 160.874 C 1063.200 159.178, 1059.825 157.275, 1059 156.645 C 1057.680 155.638, 1057.673 155.720, 1058.937 157.328 M 987.750 164.206 C 983.274 166.132, 981.302 169.267, 983.999 170.167 C 984.549 170.350, 985.057 173.052, 985.129 176.172 C 985.424 188.965, 975.024 195.951, 948 201.112 C 937.293 203.158, 936.163 203.543, 940.120 203.800 C 944.429 204.079, 944.861 204.365, 946.522 208.050 C 948.619 212.700, 948.700 212.710, 962.013 209.997 C 977.046 206.934, 977.409 206.717, 971.723 204.202 C 969.125 203.053, 967.007 201.750, 967.016 201.306 C 967.025 200.863, 970.966 198.457, 975.774 195.959 L 984.516 191.419 991.900 193.731 C 1000.507 196.427, 1001.816 195.995, 1007.096 188.714 L 1010.152 184.500 1001.105 184.213 L 992.059 183.926 991.298 178.713 C 990.879 175.846, 990.529 173.050, 990.518 172.500 C 990.508 171.950, 993.875 171.275, 998 171 L 1005.500 170.500 999.587 166.250 C 996.335 163.912, 993.410 162.036, 993.087 162.081 C 992.764 162.125, 990.362 163.082, 987.750 164.206 M 1193.250 164.123 C 1189.505 165.844, 1187.042 169.984, 1189.750 170.006 C 1190.162 170.009, 1190.617 172.597, 1190.759 175.756 C 1191.318 188.155, 1181.389 195.436, 1157.500 200.144 C 1152 201.228, 1145.925 202.493, 1144 202.954 C 1140.504 203.792, 1140.505 203.793, 1145.230 203.897 C 1149.703 203.994, 1150.070 204.217, 1152 208 C 1154.379 212.664, 1154.485 212.678, 1167.153 210.091 C 1181.981 207.064, 1182.494 206.731, 1176.713 203.905 L 1171.925 201.565 1174.213 199.805 C 1175.471 198.837, 1176.874 198.034, 1177.332 198.022 C 1177.789 198.010, 1180.853 196.423, 1184.141 194.497 C 1188.516 191.933, 1190.574 191.237, 1191.817 191.902 C 1192.751 192.402, 1196.199 193.512, 1199.478 194.368 L 1205.440 195.925 1210.220 190.966 C 1212.849 188.238, 1215 185.555, 1215 185.003 C 1215 184.407, 1211.353 184, 1206 184 C 1197.892 184, 1197 183.816, 1197 182.140 C 1197 181.116, 1196.714 178.191, 1196.364 175.640 L 1195.728 171 1202.864 171 C 1211.333 171, 1211.564 170.492, 1205.029 166.214 C 1198.448 161.905, 1198.180 161.858, 1193.250 164.123 M 820.363 168.819 C 821.004 175.347, 822.307 178.126, 825.908 180.648 C 827.959 182.085, 828 181.999, 828 176.260 C 828 170.705, 827.789 170.204, 823.871 166.453 L 819.742 162.500 820.363 168.819 M 1026 169.319 C 1026 174.453, 1026.350 175.406, 1029.473 178.765 L 1032.946 182.500 1032.973 176.446 C 1032.998 170.825, 1032.750 170.150, 1029.500 167 L 1026 163.608 1026 169.319 M 839.500 167.008 C 834.684 168.774, 834.592 168.878, 837 169.849 C 838.375 170.403, 842.360 171.999, 845.855 173.395 L 852.210 175.934 856.317 173.838 L 860.424 171.743 853.962 168.420 C 846.515 164.590, 846.180 164.558, 839.500 167.008 M 1045.500 166.918 L 1040.500 168.681 1043.913 170.450 C 1045.790 171.423, 1049.737 173.049, 1052.684 174.063 C 1057.989 175.888, 1058.079 175.886, 1061.599 173.809 L 1065.154 171.711 1058.874 168.356 C 1051.706 164.526, 1052.149 164.574, 1045.500 166.918 M 974.250 168.662 C 973.481 168.973, 973 171.117, 973 174.238 C 973 179.247, 973.025 179.287, 975 177.500 C 976.339 176.288, 977 174.420, 977 171.845 C 977 168.042, 976.687 167.679, 974.250 168.662 M 1179.406 169.386 C 1179.113 170.148, 1179.015 172.735, 1179.187 175.136 C 1179.552 180.230, 1181.194 178.508, 1182.414 171.750 C 1183.104 167.927, 1180.692 166.032, 1179.406 169.386 M 1153.717 172.892 C 1151.636 173.226, 1150.061 173.950, 1150.217 174.500 C 1150.373 175.050, 1150.950 175.338, 1151.500 175.140 C 1152.050 174.942, 1154.300 174.199, 1156.500 173.489 C 1160.773 172.109, 1159.836 171.908, 1153.717 172.892 M 943.500 174 C 942.754 175.207, 946.692 175.207, 949.500 174 C 951.112 173.307, 950.784 173.127, 947.809 173.070 C 945.779 173.032, 943.840 173.450, 943.500 174 M 994.014 175.250 C 994.070 180.429, 994.924 181, 1002.617 181 C 1010.306 181, 1010.626 180.778, 1009.025 176.565 C 1008.106 174.148, 1007.645 174, 1001.025 174 C 996.064 174, 994.004 174.367, 994.014 175.250 M 1199.375 175.535 C 1199.719 176.431, 1200 178.027, 1200 179.082 C 1200 180.813, 1200.780 181, 1208.003 181 L 1216.006 181 1214.683 177.750 C 1213.379 174.546, 1213.256 174.496, 1206.055 174.204 C 1199.648 173.944, 1198.827 174.107, 1199.375 175.535 M 887.631 179.095 C 887.267 180.915, 886.168 182.379, 884.770 182.906 C 881.321 184.208, 891.293 185.201, 903.500 184.771 L 913.500 184.419 900.809 184.209 C 884.889 183.947, 882.267 182.030, 897.691 181.930 C 910.384 181.847, 912.083 181.387, 910.941 178.340 C 910.180 176.309, 909.476 176.179, 899.177 176.160 L 888.222 176.140 887.631 179.095 M 1039.250 177.556 C 1038.563 178.304, 1038 179.636, 1038 180.517 C 1038 181.397, 1037.550 181.840, 1037 181.500 C 1035.782 180.747, 1035.706 182.987, 1036.885 184.849 C 1037.486 185.797, 1037.937 185.151, 1038.402 182.672 C 1038.766 180.732, 1039.567 178.978, 1040.182 178.773 C 1040.797 178.568, 1041.120 177.904, 1040.900 177.299 C 1040.632 176.559, 1040.089 176.644, 1039.250 177.556 M 1093.434 177.590 C 1093.195 178.366, 1092.789 179.675, 1092.531 180.500 C 1092.134 181.773, 1093.763 181.998, 1103.281 181.985 C 1115.541 181.968, 1117.204 181.498, 1116.364 178.284 C 1115.833 176.255, 1115.216 176.141, 1104.836 176.160 C 1096.283 176.176, 1093.773 176.491, 1093.434 177.590 M 838.015 178.191 C 838.045 180.702, 839.967 182.770, 839.985 180.309 C 839.993 179.104, 839.550 177.840, 839 177.500 C 838.450 177.160, 838.007 177.471, 838.015 178.191 M 1185.615 180.750 C 1183.694 184.428, 1179.473 188.305, 1174 191.417 C 1171.525 192.824, 1169.950 193.977, 1170.500 193.979 C 1174.716 193.990, 1185.525 184.846, 1187.321 179.750 C 1188.268 177.061, 1187.222 177.674, 1185.615 180.750 M 979.918 181.679 C 979.138 183.150, 975.863 186.300, 972.640 188.677 C 965.920 193.635, 966.374 194.512, 973.289 189.932 C 977.512 187.135, 982.863 180.530, 981.782 179.449 C 981.537 179.204, 980.698 180.207, 979.918 181.679 M 832.250 180.662 C 831.563 180.940, 831.052 182.142, 831.116 183.333 C 831.208 185.043, 831.329 185.128, 831.692 183.738 C 831.945 182.769, 832.567 182.233, 833.076 182.547 C 833.584 182.861, 834 182.416, 834 181.559 C 834 180.702, 833.888 180.036, 833.750 180.079 C 833.612 180.122, 832.938 180.385, 832.250 180.662 M 1158.662 180.738 C 1158.275 181.364, 1158.576 182.242, 1159.332 182.689 C 1160.088 183.135, 1160.962 184.175, 1161.274 185 C 1161.599 185.858, 1161.876 185.298, 1161.921 183.691 C 1161.964 182.146, 1161.588 181.136, 1161.085 181.447 C 1160.582 181.758, 1159.990 181.469, 1159.768 180.805 C 1159.473 179.918, 1159.180 179.900, 1158.662 180.738 M 848.015 182.250 C 848.050 185.104, 849.969 186.566, 849.985 183.750 C 849.993 182.238, 849.550 181, 849 181 C 848.450 181, 848.007 181.563, 848.015 182.250 M 926.500 182 C 923.805 182.686, 923.754 182.765, 926 182.782 C 927.375 182.792, 929.625 182.440, 931 182 C 934.361 180.924, 930.730 180.924, 926.500 182 M 955.697 182.393 C 955.288 183.434, 955.189 184.522, 955.476 184.810 C 956.389 185.722, 957.191 184.227, 956.809 182.328 C 956.459 180.588, 956.405 180.591, 955.697 182.393 M 1053.015 181.750 C 1053.024 182.162, 1053.467 183.175, 1054 184 C 1054.784 185.213, 1054.972 185.069, 1054.985 183.250 C 1054.993 182.012, 1054.550 181, 1054 181 C 1053.450 181, 1053.007 181.338, 1053.015 181.750 M 853.703 188.177 C 854.020 191.980, 854.813 194.965, 855.692 195.667 C 857.281 196.935, 869.216 199.795, 877.748 200.953 L 883.081 201.676 882.791 194.588 C 882.501 187.513, 882.494 187.499, 879.500 187.227 C 876.017 186.911, 856.388 183.086, 854.473 182.351 C 853.463 181.964, 853.293 183.250, 853.703 188.177 M 1059.201 188.624 L 1059.500 195.500 1067.282 197.713 C 1075.662 200.095, 1087.859 202.038, 1088.448 201.084 C 1088.647 200.762, 1088.566 197.462, 1088.268 193.749 C 1087.737 187.136, 1087.669 187, 1084.899 187 C 1081.767 187, 1063.536 183.579, 1060.701 182.459 C 1059.060 181.811, 1058.929 182.348, 1059.201 188.624 M 1142.500 184.079 C 1138.650 185.084, 1133.025 186.189, 1130 186.535 C 1120.712 187.597, 1121 187.340, 1121 194.586 C 1121 200.757, 1121.098 201.017, 1123.250 200.542 C 1124.487 200.269, 1128.425 199.561, 1132 198.968 C 1135.575 198.376, 1141.088 197.181, 1144.250 196.314 L 1150 194.736 1150 188.368 C 1150 184.866, 1149.888 182.057, 1149.750 182.127 C 1149.612 182.196, 1146.350 183.075, 1142.500 184.079 M 916.762 183.707 C 918.006 183.946, 919.806 183.937, 920.762 183.687 C 921.718 183.437, 920.700 183.241, 918.500 183.252 C 916.300 183.263, 915.518 183.468, 916.762 183.707 M 930.500 185.251 C 925 186.333, 919.487 187.403, 918.250 187.629 C 916.194 188.003, 916 188.590, 916 194.425 C 916 199.975, 916.229 200.767, 917.750 200.463 C 918.712 200.270, 922.650 199.590, 926.500 198.952 C 939.221 196.844, 943.999 195.132, 944.011 192.679 C 944.017 191.481, 944.301 188.813, 944.642 186.750 C 945.383 182.266, 945.564 182.285, 930.500 185.251 M 1122.250 183.689 C 1123.213 183.941, 1124.787 183.941, 1125.750 183.689 C 1126.713 183.438, 1125.925 183.232, 1124 183.232 C 1122.075 183.232, 1121.287 183.438, 1122.250 183.689 M 1100.292 184.742 C 1104.027 184.935, 1109.877 184.934, 1113.292 184.739 C 1116.706 184.545, 1113.650 184.387, 1106.500 184.389 C 1099.350 184.390, 1096.556 184.550, 1100.292 184.742 M 846.071 185.628 C 845.970 187.235, 849.024 194.309, 849.579 193.754 C 849.834 193.500, 849.164 191.313, 848.092 188.896 C 847.019 186.478, 846.109 185.008, 846.071 185.628 M 1052.070 187.691 C 1052.032 188.896, 1052.450 190.160, 1053 190.500 C 1054.183 191.231, 1054.183 190.252, 1053 187.500 C 1052.171 185.572, 1052.138 185.579, 1052.070 187.691 M 1158.616 188.559 C 1157.817 190.641, 1158.160 191.137, 1159.726 190.169 C 1160.402 189.751, 1160.554 188.896, 1160.086 188.140 C 1159.459 187.125, 1159.130 187.219, 1158.616 188.559 M 886 195 L 886 202 890.346 202 C 892.737 202, 898.812 201.708, 903.846 201.350 L 913 200.701 913 194.350 L 913 188 899.500 188 L 886 188 886 195 M 1091.204 194.750 L 1091.500 201.500 1104.435 201.232 C 1111.549 201.085, 1117.551 200.783, 1117.772 200.561 C 1117.994 200.339, 1118.423 197.422, 1118.727 194.079 L 1119.278 188 1105.093 188 L 1090.909 188 1091.204 194.750 M 1007.589 196.648 C 1004.667 200.311, 1002.569 210, 1004.698 210 C 1007.497 210, 1010.388 204.788, 1010.807 198.986 C 1011.317 191.939, 1011.336 191.953, 1007.589 196.648 M 1212.750 196.730 C 1210.472 199.115, 1210 200.502, 1210 204.805 C 1210 210.734, 1210.961 211.268, 1213.985 207.021 C 1215.619 204.727, 1216.036 202.871, 1215.803 198.946 L 1215.500 193.850 1212.750 196.730 M 978.093 198.259 L 972.686 201.295 976.348 203.174 L 980.011 205.053 987.507 201.933 C 995.567 198.577, 995.994 197.648, 990.214 196.043 C 985.129 194.630, 984.277 194.786, 978.093 198.259 M 1183.587 198.209 L 1177.675 201.290 1181.325 203.162 L 1184.975 205.035 1192.999 201.940 C 1201.835 198.533, 1202.167 197.783, 1195.574 196.123 C 1189.914 194.698, 1190.536 194.590, 1183.587 198.209 M 837.500 199.531 L 834.500 201.990 841.250 201.995 C 848.542 202, 849.709 200.935, 845.050 198.526 C 841.274 196.573, 841.077 196.599, 837.500 199.531 M 1043 199.500 L 1040.651 202 1046.826 202 C 1053.812 202, 1055.351 200.015, 1049.851 198.098 C 1045.660 196.637, 1045.697 196.629, 1043 199.500 M 854.022 204.250 C 854.034 205.488, 854.924 207.625, 856 209 L 857.956 211.500 857.978 207.357 C 857.993 204.487, 857.514 203.028, 856.418 202.607 C 854.101 201.718, 853.998 201.789, 854.022 204.250 M 1060 204.909 C 1060 206.474, 1060.675 208.315, 1061.500 209 C 1062.785 210.066, 1063 209.741, 1063 206.729 C 1063 204.527, 1062.440 202.999, 1061.500 202.638 C 1060.383 202.210, 1060 202.790, 1060 204.909 M 831.975 207.565 C 830.363 211.807, 830.682 212, 839.299 212 L 847.598 212 847.190 208.500 L 846.781 205 839.866 205 C 833.363 205, 832.892 205.153, 831.975 207.565 M 1038 205.257 C 1038 205.398, 1037.581 206.973, 1037.070 208.757 L 1036.140 212 1044.570 212 L 1053 212 1053 208.500 L 1053 205 1045.500 205 C 1041.375 205, 1038 205.115, 1038 205.257 M 1198.200 207.200 C 1196.642 208.758, 1196.667 210.719, 1198.250 211.260 C 1199.246 211.601, 1199.249 212.367, 1198.267 215.028 C 1197.589 216.865, 1197.270 218.603, 1197.557 218.890 C 1197.844 219.178, 1198.339 218.420, 1198.656 217.206 C 1199.263 214.888, 1201 214.142, 1201 216.200 C 1201 217.084, 1201.294 217.106, 1202.117 216.283 C 1202.939 215.461, 1202.658 214.551, 1201.052 212.833 C 1199.705 211.393, 1199.034 209.639, 1199.297 208.250 C 1199.792 205.634, 1199.779 205.621, 1198.200 207.200 M 898.500 207.927 L 891.500 208.500 901 210.299 C 917.743 213.469, 916.473 213.452, 917.805 210.528 C 918.462 209.086, 919 207.702, 919 207.453 C 919 206.897, 907.956 207.152, 898.500 207.927 M 921.161 209.547 C 920.522 210.948, 920 212.298, 920 212.547 C 920 212.796, 925.862 213, 933.026 213 L 946.051 213 944.500 210 L 942.949 207 932.635 207 C 922.553 207, 922.295 207.057, 921.161 209.547 M 992 209 C 992 210.100, 992.450 211, 993 211 C 993.550 211, 994 211.873, 994 212.941 C 994 214.009, 993.550 215.160, 993 215.500 C 992.450 215.840, 992.029 216.879, 992.064 217.809 C 992.102 218.812, 992.797 218.155, 993.771 216.196 C 995.115 213.494, 995.188 212.531, 994.173 210.905 C 993.491 209.813, 993.199 208.487, 993.525 207.959 C 993.851 207.432, 993.641 207, 993.059 207 C 992.477 207, 992 207.900, 992 209 M 1104.500 207.936 L 1097.500 208.519 1103.500 209.809 C 1106.800 210.518, 1110.625 211.271, 1112 211.482 C 1113.375 211.693, 1116.167 212.137, 1118.205 212.470 C 1121.585 213.021, 1122.048 212.807, 1123.481 210.037 L 1125.051 207 1118.276 207.177 C 1114.549 207.274, 1108.350 207.615, 1104.500 207.936 M 1126.630 209.250 C 1126.299 210.488, 1126.021 211.838, 1126.014 212.250 C 1126.006 212.662, 1131.625 213, 1138.500 213 C 1145.375 213, 1151 212.796, 1151 212.547 C 1151 212.298, 1150.478 210.948, 1149.839 209.547 C 1148.701 207.048, 1148.476 207, 1137.956 207 C 1127.681 207, 1127.208 207.094, 1126.630 209.250 M 988.314 209.750 C 987.972 210.713, 987.503 211.950, 987.272 212.500 C 987.041 213.050, 987.560 212.626, 988.426 211.559 C 989.998 209.620, 990.473 208, 989.469 208 C 989.176 208, 988.657 208.787, 988.314 209.750 M 1193.729 208.604 C 1193.328 209.005, 1193.029 210.496, 1193.063 211.917 L 1193.127 214.500 1194.092 212.086 C 1195.132 209.484, 1194.917 207.417, 1193.729 208.604 M 983.374 211.467 C 982.321 214.211, 983.570 215.239, 984.766 212.613 C 985.514 210.973, 985.581 210, 984.947 210 C 984.392 210, 983.684 210.660, 983.374 211.467 M 1189.123 210.924 C 1188.397 211.373, 1187.980 212.586, 1188.195 213.620 C 1188.551 215.325, 1188.708 215.282, 1189.875 213.164 C 1191.331 210.522, 1191.063 209.725, 1189.123 210.924 M 850 213.684 C 850 214.675, 847.775 215, 841 215 C 836.050 215, 832 215.284, 832 215.632 C 832 217.277, 836.209 222.778, 839.107 224.921 L 842.342 227.312 850.009 224.799 L 857.676 222.285 867.019 226.774 C 877.122 231.627, 877.018 231.307, 869.825 235.385 L 866.500 237.269 873.696 239.028 C 886.757 242.219, 894.626 242.568, 895.992 240.015 C 897.475 237.245, 896.622 235, 894.088 235 C 886.184 235, 862.068 223.999, 854.966 217.154 C 852.235 214.522, 850 212.960, 850 213.684 M 969.500 214.545 C 964.550 215.845, 958.193 217.199, 955.372 217.554 L 950.244 218.200 949.622 222.740 C 948.302 232.368, 948.585 232.480, 965.428 229.015 C 979.031 226.216, 979 226.240, 979 218.465 C 979 214.909, 978.888 212.041, 978.750 212.091 C 978.612 212.140, 974.450 213.245, 969.500 214.545 M 1055 213.526 C 1055 214.715, 1053.262 215, 1046 215 C 1041.050 215, 1037 215.387, 1037 215.859 C 1037 217.276, 1044.938 225.846, 1046.786 226.424 C 1047.729 226.719, 1051.796 225.911, 1055.824 224.630 L 1063.147 222.300 1072.324 226.786 C 1077.371 229.254, 1081.621 231.369, 1081.768 231.488 C 1081.916 231.606, 1080.003 232.781, 1077.518 234.100 C 1075.033 235.418, 1073 236.770, 1073 237.104 C 1073 237.925, 1087.046 240.871, 1094.610 241.637 C 1100.702 242.254, 1100.721 242.247, 1101.441 239.378 C 1102.386 235.615, 1102.716 235.861, 1093.500 233.457 C 1079.616 229.837, 1065.932 222.982, 1059.250 216.302 C 1056.761 213.814, 1055 212.663, 1055 213.526 M 1177.022 214.097 C 1173.458 215.125, 1167.046 216.502, 1162.772 217.156 L 1155 218.346 1155 224.673 C 1155 230.909, 1155.040 231, 1157.750 231 C 1161.016 231, 1174.856 228.423, 1180.215 226.817 L 1184 225.683 1184 218.842 C 1184 215.079, 1183.888 212.051, 1183.750 212.113 C 1183.612 212.176, 1180.585 213.068, 1177.022 214.097 M 988.644 216.932 C 987.694 219.307, 987.134 221.467, 987.400 221.733 C 988.063 222.397, 991.130 214.889, 990.709 213.628 C 990.524 213.071, 989.594 214.557, 988.644 216.932 M 887 218.378 C 887 220.785, 887.563 223.197, 888.250 223.737 C 889.882 225.018, 905.429 228.908, 912.053 229.693 L 917.230 230.306 916.502 224.903 C 916.101 221.931, 915.649 219.362, 915.497 219.193 C 915.345 219.025, 910.783 218.251, 905.360 217.475 C 899.937 216.699, 893.928 215.599, 892.007 215.032 C 887.008 213.556, 887 213.561, 887 218.378 M 1092.261 218.624 C 1092.548 221.167, 1093.365 223.607, 1094.077 224.047 C 1095.931 225.193, 1110.558 228.755, 1116.750 229.568 L 1122 230.258 1122 224.708 C 1122 218.469, 1122.504 218.801, 1111 217.469 C 1107.975 217.119, 1102.960 216.195, 1099.856 215.416 C 1091.620 213.350, 1091.664 213.331, 1092.261 218.624 M 1193.723 217.454 C 1191.717 221.661, 1191.663 222, 1193 222 C 1193.550 222, 1194 221.190, 1194 220.200 C 1194 219.210, 1194.501 217.899, 1195.112 217.288 C 1195.724 216.676, 1196.050 215.650, 1195.836 215.008 C 1195.622 214.365, 1194.671 215.466, 1193.723 217.454 M 879.015 216.750 C 879.007 217.988, 879.450 219, 880 219 C 881.253 219, 881.253 217.939, 880 216 C 879.216 214.787, 879.028 214.931, 879.015 216.750 M 984.711 216.999 C 984.423 218.098, 984.596 219.250, 985.094 219.558 C 985.592 219.866, 986 218.966, 986 217.559 C 986 214.495, 985.430 214.247, 984.711 216.999 M 919.737 225 C 920.033 228.025, 920.389 230.637, 920.527 230.805 C 920.664 230.973, 926.565 231.198, 933.638 231.305 L 946.500 231.500 946.809 225.322 L 947.118 219.143 933.158 219.322 L 919.197 219.500 919.737 225 M 1125.001 225.103 L 1125 230.707 1132.651 231.353 C 1136.859 231.709, 1142.934 232, 1146.151 232 L 1152 232 1152 225.579 L 1152 219.157 1138.501 219.329 L 1125.002 219.500 1125.001 225.103 M 831 229.564 C 831 235.315, 831.190 235.777, 835.101 239.547 L 839.202 243.500 838.511 237 C 837.918 231.422, 837.336 230.006, 834.410 227.017 L 831 223.533 831 229.564 M 1036 229.497 C 1036 234.409, 1036.385 235.421, 1039.616 238.997 C 1044.323 244.206, 1044.562 244.102, 1044.162 237.014 C 1043.862 231.713, 1043.419 230.619, 1040.312 227.512 C 1035.859 223.059, 1036 222.995, 1036 229.497 M 852.518 227.092 C 846.240 229.475, 846.171 229.627, 850.537 231.451 C 861.115 235.871, 863.152 236.233, 866.693 234.326 C 870.960 232.028, 870.969 232.045, 863.562 228.396 L 857.261 225.291 852.518 227.092 M 1056.575 227.579 C 1054.416 228.369, 1052.473 229.193, 1052.257 229.409 C 1052.041 229.625, 1055.585 231.237, 1060.132 232.991 C 1068.069 236.051, 1068.533 236.116, 1071.700 234.606 C 1076.137 232.490, 1075.910 231.949, 1069.237 228.749 C 1062.762 225.643, 1062.041 225.577, 1056.575 227.579 M 1095.500 228 C 1096.600 228.473, 1098.175 228.859, 1099 228.859 C 1099.945 228.859, 1099.761 228.542, 1098.500 228 C 1097.400 227.527, 1095.825 227.141, 1095 227.141 C 1094.055 227.141, 1094.239 227.458, 1095.500 228 M 897.500 230 C 898.600 230.473, 900.400 230.846, 901.500 230.830 C 903.108 230.806, 903.010 230.644, 901 230 C 897.581 228.905, 894.952 228.905, 897.500 230 M 985.250 229.662 C 983.834 230.234, 983.513 237, 984.902 237 C 985.398 237, 986.298 235.583, 986.902 233.851 C 988.595 228.993, 988.364 228.406, 985.250 229.662 M 1102.500 230 C 1103.600 230.473, 1105.400 230.846, 1106.500 230.830 C 1108.108 230.806, 1108.010 230.644, 1106 230 C 1102.581 228.905, 1099.952 228.905, 1102.500 230 M 1190.250 229.662 C 1188.790 230.252, 1188.623 233.855, 1189.958 235.966 C 1190.700 237.140, 1191.096 236.878, 1191.943 234.651 C 1193.799 229.769, 1193.339 228.416, 1190.250 229.662 M 994 231.500 C 994 232.362, 994.902 233, 996.122 233 C 997.896 233, 998.040 232.753, 997 231.500 C 996.315 230.675, 995.360 230, 994.878 230 C 994.395 230, 994 230.675, 994 231.500 M 1199.667 230.667 C 1198.288 232.046, 1199.087 233, 1201.622 233 C 1203.840 233, 1204.053 232.768, 1203 231.500 C 1201.645 229.868, 1200.702 229.632, 1199.667 230.667 M 917.250 233.689 C 918.212 233.941, 919.788 233.941, 920.750 233.689 C 921.712 233.438, 920.925 233.232, 919 233.232 C 917.075 233.232, 916.288 233.438, 917.250 233.689 M 1122.762 233.707 C 1124.006 233.946, 1125.806 233.937, 1126.762 233.687 C 1127.718 233.437, 1126.700 233.241, 1124.500 233.252 C 1122.300 233.263, 1121.518 233.468, 1122.762 233.707 M 973.382 234.982 C 972.217 235.453, 971.045 236.986, 970.777 238.389 C 970.508 239.792, 970.674 240.702, 971.144 240.411 C 971.615 240.120, 972 238.978, 972 237.874 C 972 236.320, 972.453 236.009, 974 236.500 C 975.419 236.950, 976 236.680, 976 235.567 C 976 234.705, 975.888 234.029, 975.750 234.063 C 975.612 234.098, 974.547 234.512, 973.382 234.982 M 1176.500 237 C 1176.125 238.183, 1176.042 239.376, 1176.317 239.651 C 1176.592 239.926, 1177.125 239.183, 1177.500 238 C 1177.875 236.817, 1177.958 235.624, 1177.683 235.349 C 1177.408 235.074, 1176.875 235.817, 1176.500 237 M 898.970 238.580 C 897.353 242.832, 897.673 243, 907.375 243 C 919.250 243, 923.196 242.261, 922.785 240.116 C 922.551 238.893, 920.776 238.337, 915.488 237.830 C 911.645 237.461, 906.574 236.906, 904.220 236.595 C 900.313 236.079, 899.854 236.253, 898.970 238.580 M 992.381 237.250 C 991.976 237.938, 990.998 239.512, 990.207 240.750 L 988.770 243 995.791 243 L 1002.813 243 1001.739 239.500 C 1000.759 236.308, 1000.332 236, 996.891 236 C 994.816 236, 992.786 236.563, 992.381 237.250 M 1050 237.164 C 1050 237.742, 1050.675 237.955, 1051.500 237.638 C 1052.325 237.322, 1053 237.525, 1053 238.090 C 1053 238.656, 1053.480 238.821, 1054.067 238.459 C 1055.418 237.624, 1054.842 237.047, 1052.135 236.526 C 1050.961 236.300, 1050 236.587, 1050 237.164 M 1104.755 237.653 C 1104.465 238.669, 1103.884 240.336, 1103.465 241.357 C 1102.743 243.119, 1103.348 243.196, 1115.269 242.857 C 1128.389 242.484, 1129.415 242.246, 1128.472 239.787 C 1128.054 238.699, 1125.619 238.112, 1119.604 237.650 C 1115.043 237.299, 1109.955 236.741, 1108.298 236.410 C 1105.914 235.933, 1105.173 236.193, 1104.755 237.653 M 1196.241 239.512 L 1193.982 243 1201.010 243 L 1208.038 243 1207.381 240.250 C 1206.405 236.167, 1206.199 235.999, 1202.191 236.012 C 1199.080 236.023, 1198.145 236.573, 1196.241 239.512 M 842 239.382 C 842 240.207, 842.450 241.160, 843 241.500 C 843.550 241.840, 844 241.443, 844 240.618 C 844 239.793, 843.550 238.840, 843 238.500 C 842.450 238.160, 842 238.557, 842 239.382 M 851 239.800 C 851 241.010, 851.420 242, 851.934 242 C 852.447 242, 853.063 243.012, 853.302 244.250 C 853.542 245.488, 853.588 244.964, 853.405 243.086 C 853.016 239.094, 851 236.339, 851 239.800 M 934.750 238.745 C 927.895 239.006, 926 239.394, 926 240.539 C 926 242.344, 928.188 242.342, 938.351 240.531 C 945.417 239.272, 950.222 237.690, 945.417 238.206 C 944.362 238.319, 939.563 238.561, 934.750 238.745 M 976.708 240.010 C 975.982 242.784, 976.142 243.158, 977.642 242.196 C 978.244 241.810, 978.417 240.633, 978.032 239.554 C 977.389 237.756, 977.288 237.791, 976.708 240.010 M 1057.136 239.691 C 1057.061 240.896, 1057.430 242.148, 1057.956 242.473 C 1058.482 242.798, 1058.677 243.679, 1058.388 244.431 C 1058.100 245.183, 1058.344 246.095, 1058.932 246.458 C 1059.583 246.860, 1060 246.119, 1060 244.559 C 1060 243.152, 1059.581 242, 1059.070 242 C 1058.558 242, 1057.944 240.988, 1057.706 239.750 C 1057.273 237.501, 1057.272 237.501, 1057.136 239.691 M 1140.250 238.745 C 1131.779 239.047, 1129.350 239.862, 1132.012 241.508 C 1133.148 242.210, 1147.194 240.273, 1150.416 238.970 C 1151.562 238.506, 1151.825 238.192, 1151 238.271 C 1150.175 238.350, 1145.338 238.564, 1140.250 238.745 M 1178.684 240.382 C 1178.308 241.362, 1178.029 242.914, 1178.063 243.832 C 1178.105 244.937, 1178.453 244.685, 1179.092 243.086 C 1179.623 241.758, 1179.902 240.206, 1179.712 239.636 C 1179.522 239.067, 1179.059 239.403, 1178.684 240.382 M 960.015 242.250 C 960.028 244.069, 960.216 244.213, 961 243 C 962.253 241.061, 962.253 240, 961 240 C 960.450 240, 960.007 241.012, 960.015 242.250 M 1165.729 240.604 C 1165.328 241.005, 1165 242.023, 1165 242.867 C 1165 243.992, 1165.296 244.104, 1166.112 243.288 C 1166.724 242.676, 1167.053 241.657, 1166.842 241.025 C 1166.631 240.393, 1166.130 240.203, 1165.729 240.604 M 848.070 241.691 C 848.109 242.136, 848.527 243.400, 849 244.500 C 849.829 246.428, 849.862 246.421, 849.930 244.309 C 849.968 243.104, 849.550 241.840, 849 241.500 C 848.450 241.160, 848.032 241.246, 848.070 241.691 M 1064.732 243.085 C 1065.130 244.604, 1065.493 244.821, 1066.073 243.882 C 1066.933 242.490, 1066.397 241, 1065.035 241 C 1064.569 241, 1064.433 241.938, 1064.732 243.085 M 1172.440 243.382 C 1172.079 244.822, 1171.382 246, 1170.892 246 C 1170.401 246, 1170 247.200, 1170 248.667 C 1170 250.133, 1170.330 251.003, 1170.733 250.600 C 1171.697 249.637, 1174.031 241.698, 1173.505 241.172 C 1173.281 240.948, 1172.802 241.942, 1172.440 243.382 M 864.207 248.821 L 864.500 255.388 870.225 257.084 C 877.540 259.251, 893.821 262.554, 894.242 261.956 C 894.418 261.705, 894.400 258.518, 894.201 254.874 L 893.840 248.249 886.458 247.058 C 882.398 246.403, 875.665 245.054, 871.495 244.061 L 863.914 242.255 864.207 248.821 M 943 244.550 C 937.775 245.810, 932.098 246.877, 930.384 246.921 L 927.269 247 926.739 254.250 C 926.448 258.238, 926.285 261.585, 926.377 261.689 C 926.773 262.135, 946.788 257.899, 951.182 256.440 L 956 254.839 956 248.420 C 956 240.923, 956.911 241.194, 943 244.550 M 1070 249.086 L 1070 255.818 1082.780 258.909 C 1100.812 263.270, 1100 263.446, 1100 255.173 L 1100 248.346 1091.936 247.112 C 1087.501 246.433, 1080.751 245.084, 1076.936 244.116 L 1070 242.354 1070 249.086 M 1156.795 242.538 C 1156.499 242.834, 1150.911 244.112, 1144.378 245.376 L 1132.500 247.676 1132.208 254.726 L 1131.917 261.775 1139.708 260.335 C 1143.994 259.543, 1150.425 258.094, 1154 257.116 L 1160.500 255.337 1160.796 248.669 C 1161.060 242.705, 1160.893 242, 1159.212 242 C 1158.179 242, 1157.091 242.242, 1156.795 242.538 M 965 246.918 C 965 247.423, 964.738 248.661, 964.418 249.668 C 963.886 251.344, 963.971 251.335, 965.418 249.559 C 967.230 247.336, 967.448 246, 966 246 C 965.450 246, 965 246.413, 965 246.918 M 980.727 249.841 L 975.953 253.500 983.227 255.744 C 987.227 256.979, 990.822 257.991, 991.215 257.994 C 992.622 258.005, 999.130 251.650, 1000.577 248.852 L 1002.051 246 993.776 246.091 C 985.847 246.178, 985.300 246.336, 980.727 249.841 M 1188.327 248.351 C 1186.772 249.645, 1184.403 251.281, 1183.063 251.987 C 1180.745 253.208, 1181.020 253.392, 1188.730 255.773 L 1196.833 258.277 1199.571 256.122 C 1202.470 253.842, 1207 248.161, 1207 246.806 C 1207 246.363, 1203.435 246, 1199.077 246 C 1192.227 246, 1190.771 246.319, 1188.327 248.351 M 851 248.211 C 851 249.060, 851.749 250.373, 852.664 251.128 C 854.186 252.383, 854.217 252.287, 853.028 250 C 851.286 246.648, 851 246.395, 851 248.211 M 855.015 249.191 C 855.045 251.702, 856.967 253.770, 856.985 251.309 C 856.993 250.104, 856.550 248.840, 856 248.500 C 855.450 248.160, 855.007 248.471, 855.015 249.191 M 897.204 254.682 C 897.570 262.938, 898.544 263.396, 913.750 262.447 L 924 261.808 924.014 257.154 C 924.021 254.594, 924.299 251.488, 924.630 250.250 L 925.233 248 911.071 248 L 896.909 248 897.204 254.682 M 1102.331 254.642 C 1102.672 258.296, 1103.228 261.558, 1103.566 261.892 C 1104.276 262.595, 1127.865 262.469, 1128.575 261.758 C 1128.835 261.498, 1129.328 258.296, 1129.669 254.642 L 1130.289 248 1116 248 L 1101.711 248 1102.331 254.642 M 999.393 258 C 996.819 260.900, 996.190 262.597, 995.724 267.904 L 995.162 274.309 999.133 270.337 C 1002.978 266.493, 1003.095 266.175, 1002.802 260.433 L 1002.500 254.500 999.393 258 M 1204.703 257.792 C 1201.208 261.371, 1201 261.947, 1201 268.023 L 1201 274.462 1204.241 271.221 C 1207.120 268.341, 1207.539 267.201, 1208.001 260.990 C 1208.286 257.146, 1208.494 254, 1208.463 254 C 1208.432 254, 1206.740 255.706, 1204.703 257.792 M 968.822 260.328 L 963.145 263.531 966.893 265.584 L 970.642 267.638 977.071 265.022 C 987.610 260.733, 988.066 260.362, 984.500 258.969 C 978.505 256.628, 974.815 256.948, 968.822 260.328 M 1047.382 262.355 C 1048.536 272.588, 1052 275.828, 1052 266.674 C 1052 262.198, 1051.579 260.962, 1049.361 258.924 L 1046.722 256.500 1047.382 262.355 M 1174.665 260.249 C 1169.313 263.142, 1168.982 263.514, 1170.665 264.745 C 1174.323 267.420, 1176.945 267.264, 1185.136 263.882 L 1193.235 260.538 1189.873 259.167 C 1183.807 256.691, 1180.860 256.901, 1174.665 260.249 M 842 262.866 C 842 266.197, 842.610 268.532, 843.894 270.118 L 845.788 272.457 846.144 266.678 C 846.458 261.578, 846.236 260.726, 844.250 259.426 C 842.022 257.968, 842 258.002, 842 262.866 M 1158 262.567 C 1152.225 264.399, 1146.112 265.921, 1144.417 265.949 C 1140.166 266.019, 1139.861 266.651, 1142.182 270.584 C 1144.593 274.670, 1145.190 274.716, 1159.111 271.894 C 1172.706 269.138, 1173.086 268.873, 1167.549 266.025 C 1162.080 263.212, 1162.127 263.508, 1166.750 261.068 C 1171.806 258.399, 1170.348 258.649, 1158 262.567 M 951.500 263.052 C 946.550 264.605, 941.112 265.903, 939.417 265.938 C 935.225 266.022, 934.866 266.651, 936.750 270.602 C 938.708 274.709, 939.864 274.806, 953.466 272.007 C 966.616 269.301, 967.412 268.761, 962.178 266.091 C 957.422 263.664, 957.063 262.758, 960.250 261.220 C 963.913 259.454, 961.076 260.047, 951.500 263.052 M 862.500 262.729 C 864.943 265.230, 875.286 268.142, 876.701 266.727 C 877.860 265.569, 877.071 265.174, 871.568 264.161 C 867.992 263.502, 864.264 262.680, 863.283 262.334 C 862.076 261.909, 861.823 262.036, 862.500 262.729 M 1067 262.375 C 1067 262.602, 1069.971 263.977, 1073.603 265.431 C 1078.967 267.578, 1080.487 267.841, 1081.703 266.832 C 1082.951 265.796, 1082.229 265.376, 1077.350 264.301 C 1074.132 263.592, 1070.487 262.775, 1069.250 262.487 C 1068.013 262.198, 1067 262.148, 1067 262.375 M 880.551 267.339 C 878.236 269.032, 878.806 269.284, 891.170 272.038 C 903.450 274.773, 906.380 274.656, 907.877 271.371 C 909.465 267.886, 909.870 268.048, 896.874 266.973 C 882.330 265.770, 882.708 265.762, 880.551 267.339 M 1086.074 267.411 C 1084.512 269.293, 1085.130 269.575, 1096.034 271.954 C 1108.984 274.781, 1111.790 274.683, 1113.053 271.361 C 1114.383 267.863, 1114.851 268.047, 1101.874 266.973 C 1087.221 265.761, 1087.448 265.755, 1086.074 267.411 M 986.615 271.615 C 985.596 274.080, 984.976 276.309, 985.237 276.570 C 985.498 276.831, 986.499 274.982, 987.462 272.462 C 989.740 266.497, 989.027 265.784, 986.615 271.615 M 1191.964 271.583 C 1189.859 276.494, 1189.411 278.617, 1191.085 275.741 C 1192.823 272.757, 1195.057 267, 1194.478 267 C 1194.176 267, 1193.045 269.062, 1191.964 271.583 M 910.630 271.250 C 910.299 272.488, 910.021 273.837, 910.014 274.250 C 910.006 274.663, 915.625 275, 922.500 275 C 935.370 275, 936.018 274.770, 933.965 270.934 C 933.039 269.204, 931.783 269, 922.081 269 C 911.677 269, 911.209 269.092, 910.630 271.250 M 1115.975 271.565 C 1115.439 272.976, 1115 274.326, 1115 274.565 C 1115 274.804, 1120.850 275, 1128 275 C 1135.150 275, 1141 274.796, 1141 274.547 C 1141 274.298, 1140.478 272.948, 1139.839 271.547 C 1138.700 269.045, 1138.486 269, 1127.815 269 C 1117.073 269, 1116.940 269.029, 1115.975 271.565 M 979.500 272 C 979.125 273.183, 979.042 274.376, 979.317 274.651 C 979.592 274.926, 980.125 274.183, 980.500 273 C 980.875 271.817, 980.958 270.624, 980.683 270.349 C 980.408 270.074, 979.875 270.817, 979.500 272 M 974.070 275.750 C 974.133 278.187, 974.238 278.272, 975 276.500 C 976.174 273.769, 976.174 273, 975 273 C 974.450 273, 974.032 274.238, 974.070 275.750 M 963.500 276.075 C 961.850 276.572, 956.675 277.691, 952 278.561 C 947.325 279.431, 942.487 280.345, 941.250 280.591 C 939.179 281.002, 939 281.584, 939 287.881 L 939 294.723 947.750 293.326 C 952.563 292.557, 959.538 291.025, 963.250 289.922 L 970 287.915 970 281.458 C 970 274.389, 969.760 274.190, 963.500 276.075 M 1168.500 276.136 C 1166.850 276.667, 1161 277.899, 1155.500 278.874 L 1145.500 280.648 1145.204 287.324 C 1144.922 293.708, 1145.009 294, 1147.204 293.992 C 1151.392 293.979, 1161.764 292.008, 1168.343 289.976 L 1174.831 287.972 1175.165 281.484 C 1175.535 274.309, 1175.149 273.999, 1168.500 276.136 M 875.842 281.249 C 876.030 284.137, 876.534 286.869, 876.962 287.320 C 877.973 288.385, 894.849 292.778, 901.132 293.612 L 906 294.258 906 287.690 L 906 281.123 901.250 280.469 C 898.638 280.110, 892.154 278.957, 886.843 277.908 C 881.532 276.859, 876.807 276, 876.343 275.999 C 875.879 275.999, 875.654 278.362, 875.842 281.249 M 976.111 279.111 C 975.495 280.878, 975.157 282.491, 975.361 282.694 C 975.564 282.898, 976.302 281.685, 977 280 C 977.698 278.315, 978.036 276.702, 977.750 276.417 C 977.465 276.131, 976.727 277.344, 976.111 279.111 M 1081 278.750 C 1081 286.736, 1081.645 287.591, 1089.350 289.802 C 1096.758 291.928, 1107.032 294, 1110.168 294 C 1111.778 294, 1111.903 293.334, 1111.345 287.750 C 1111.001 284.313, 1110.625 281.380, 1110.510 281.233 C 1110.394 281.086, 1105.170 280.108, 1098.900 279.058 C 1092.630 278.008, 1086.037 276.834, 1084.250 276.450 C 1081.150 275.782, 1081 275.889, 1081 278.750 M 1181.218 279.699 C 1180.661 281.240, 1179.885 283.288, 1179.495 284.250 C 1179.105 285.212, 1179.175 286, 1179.650 286 C 1180.590 286, 1183.357 278.024, 1182.659 277.326 C 1182.424 277.090, 1181.775 278.158, 1181.218 279.699 M 908.393 282.582 C 908.727 283.452, 909 286.602, 909 289.582 L 909 295 922.750 294.999 L 936.500 294.999 936.618 287.999 L 936.737 281 922.261 281 C 909.473 281, 907.857 281.184, 908.393 282.582 M 1114 288 L 1114 295 1128.250 295.002 L 1142.500 295.005 1142.168 288.002 L 1141.836 281 1127.918 281 L 1114 281 1114 288" stroke="none" fill="#000000" fill-rule="evenodd"/>
</svg>